<?xml version="1.0" encoding="UTF-8" standalone="no"?><!DOCTYPE svg PUBLIC "-//W3C//DTD SVG 1.1//EN" "http://www.w3.org/Graphics/SVG/1.1/DTD/svg11.dtd"><svg width="100%" height="100%" viewBox="0 0 256 256" version="1.1" xmlns="http://www.w3.org/2000/svg" xmlns:xlink="http://www.w3.org/1999/xlink" xml:space="preserve" xmlns:serif="http://www.serif.com/" style="fill-rule:evenodd;clip-rule:evenodd;stroke-linejoin:round;stroke-miterlimit:2;"><rect id="favicon" x="-0" y="0" width="256" height="256" style="fill:none;"/><g><g><path d="M98.815,100.342c-8.393,7.721 -17.782,6.495 -17.782,6.495c10.849,-0.404 13.705,-8.332 13.705,-8.332c-4.023,7.515 -13.364,7.841 -13.364,7.841c8.607,-1.363 10.827,-8.279 10.827,-8.279c-3.382,6.084 -9.465,7.481 -10.59,7.692c0.002,-0.001 7.6,-3.61 10.12,-11.955c-0,0 -3.891,8.544 -10.449,11.306c4.839,-4.778 6.759,-13.111 6.759,-13.111c-2.943,7.558 -5.984,11.24 -7.442,12.699c-0.984,-7.561 2.98,-12.929 2.98,-12.929c-4.684,4.197 -3.77,13.446 -3.77,13.446c0,-0 -4.113,-5.795 -1.804,-13.132c0,0 -3.493,6.368 1.439,13.554c-0,0 -6.19,-7.005 -3.502,-15.094c0,0 -3.79,7.527 3.38,15.679c-0,-0 -7.348,-5.972 -7.517,-17.375c-0,0 -1.449,10.123 7.118,17.957c0,-0 -7.353,-5.418 -8.501,-10.011c0,0 1.284,6.399 9.052,10.829c-2.969,4.852 -7.739,7.189 -8.935,7.717c-0.168,0.073 -0.363,0.042 -0.501,-0.08c-0.132,-0.116 -0.317,-0.15 -0.481,-0.086l-4.895,1.889c-0.198,0.076 -0.363,0.22 -0.465,0.407l-0.264,0.482c-0.232,0.422 -0.089,0.952 0.322,1.202c0.239,0.145 0.532,0.17 0.793,0.069l3.58,-1.39c0.545,-0.212 1.017,-0.576 1.361,-1.048c0.26,-0.357 0.594,-0.655 0.98,-0.869c5.142,-2.838 7.893,-6.386 9.003,-8.092c8.475,2.505 14.026,-1.012 14.026,-1.012c-4.123,2.326 -13.113,0.716 -13.113,0.716c11.579,0.829 17.93,-7.185 17.93,-7.185Z" style="fill:#221e1f;fill-rule:nonzero;"/><path d="M80.302,70.233c-3.711,3.414 -7.861,2.872 -7.861,2.872c4.796,-0.179 6.058,-3.684 6.058,-3.684c-1.778,3.323 -5.908,3.467 -5.908,3.467c3.805,-0.603 4.787,-3.66 4.787,-3.66c-1.495,2.689 -4.185,3.307 -4.682,3.4c0.001,-0 3.36,-1.595 4.474,-5.285c-0,0 -1.721,3.777 -4.62,4.998c2.139,-2.112 2.989,-5.796 2.989,-5.796c-1.301,3.341 -2.646,4.969 -3.291,5.614c-0.435,-3.342 1.318,-5.716 1.318,-5.716c-2.071,1.856 -1.667,5.944 -1.667,5.944c0,0 -1.818,-2.561 -0.797,-5.805c-0,0 -1.544,2.816 0.636,5.992c-0,0 -2.736,-3.096 -1.548,-6.673c-0,0 -1.676,3.328 1.494,6.932c-0,-0 -3.249,-2.64 -3.323,-7.681c-0,-0 -0.641,4.475 3.146,7.938c0,-0 -3.25,-2.395 -3.758,-4.425c0,-0 0.568,2.828 4.002,4.787c-1.313,2.145 -3.421,3.178 -3.95,3.411c-0.074,0.033 -0.161,0.019 -0.221,-0.034c-0.059,-0.052 -0.141,-0.067 -0.213,-0.039l-2.164,0.835c-0.088,0.034 -0.161,0.098 -0.206,0.18l-0.117,0.213c-0.102,0.187 -0.039,0.421 0.143,0.532c0.105,0.064 0.235,0.075 0.35,0.031l1.583,-0.615c0.241,-0.094 0.45,-0.255 0.602,-0.463c0.114,-0.158 0.262,-0.29 0.433,-0.384c2.273,-1.256 3.489,-2.824 3.98,-3.578c3.747,1.107 6.201,-0.448 6.201,-0.448c-1.823,1.029 -5.797,0.317 -5.797,0.317c5.119,0.366 7.927,-3.177 7.927,-3.177Z" style="fill:#221e1f;fill-rule:nonzero;"/><path d="M99.132,81.711c-3.711,3.414 -7.862,2.872 -7.862,2.872c4.797,-0.178 6.059,-3.683 6.059,-3.683c-1.778,3.322 -5.908,3.466 -5.908,3.466c3.806,-0.603 4.787,-3.66 4.787,-3.66c-1.495,2.69 -4.185,3.307 -4.682,3.401c0.001,-0.001 3.36,-1.597 4.474,-5.286c-0,0 -1.721,3.777 -4.62,4.999c2.139,-2.113 2.989,-5.797 2.989,-5.797c-1.301,3.342 -2.646,4.969 -3.291,5.615c-0.434,-3.343 1.318,-5.717 1.318,-5.717c-2.071,1.856 -1.667,5.945 -1.667,5.945c0,-0 -1.818,-2.562 -0.797,-5.806c-0,0 -1.545,2.816 0.636,5.993c-0,-0 -2.737,-3.097 -1.548,-6.673c-0,-0 -1.676,3.327 1.494,6.931c-0,-0 -3.249,-2.64 -3.323,-7.681c-0,-0 -0.641,4.475 3.147,7.938c-0,0 -3.251,-2.395 -3.759,-4.425c0,-0 0.568,2.829 4.002,4.787c-1.312,2.145 -3.421,3.178 -3.95,3.411c-0.074,0.033 -0.161,0.019 -0.222,-0.034c-0.058,-0.052 -0.14,-0.067 -0.212,-0.039l-2.164,0.836c-0.088,0.033 -0.161,0.097 -0.206,0.179l-0.117,0.213c-0.102,0.187 -0.039,0.421 0.143,0.532c0.106,0.064 0.235,0.075 0.35,0.03l1.583,-0.614c0.241,-0.094 0.45,-0.254 0.602,-0.464c0.114,-0.158 0.262,-0.289 0.433,-0.383c2.273,-1.255 3.49,-2.824 3.98,-3.578c3.747,1.107 6.201,-0.447 6.201,-0.447c-1.823,1.028 -5.797,0.316 -5.797,0.316c5.119,0.367 7.927,-3.177 7.927,-3.177Z" style="fill:#221e1f;fill-rule:nonzero;"/><path d="M245.41,34.039c-1.689,4.75 -5.613,6.207 -5.613,6.207c4.159,-2.395 3.64,-6.084 3.64,-6.084c-0.022,3.768 -3.608,5.822 -3.608,5.822c3.085,-2.308 2.526,-5.471 2.526,-5.471c-0.067,3.077 -2.158,4.878 -2.554,5.193c0,-0.001 2.227,-2.979 1.49,-6.762c0,-0 0.241,4.143 -1.753,6.576c0.906,-2.867 -0.061,-6.521 -0.061,-6.521c0.408,3.562 -0.022,5.63 -0.291,6.501c-1.944,-2.754 -1.502,-5.671 -1.502,-5.671c-0.966,2.608 1.3,6.035 1.3,6.035c-0,0 -2.804,-1.417 -3.414,-4.762c-0,0 -0.052,3.211 3.358,5.003c0,0 -3.865,-1.462 -4.483,-5.18c0,0 0.071,3.725 4.556,5.434c-0,-0 -4.105,-0.819 -6.523,-5.243c-0,-0 1.521,4.257 6.487,5.553c0,-0 -3.992,-0.602 -5.389,-2.161c0,0 1.822,2.237 5.773,2.367c-0.16,2.51 -1.543,4.407 -1.902,4.861c-0.05,0.063 -0.133,0.091 -0.212,0.072c-0.075,-0.019 -0.155,0.007 -0.206,0.065l-1.524,1.749c-0.062,0.07 -0.096,0.161 -0.098,0.255l-0.004,0.243c-0.003,0.213 0.162,0.39 0.374,0.403c0.124,0.008 0.243,-0.043 0.324,-0.136l1.113,-1.282c0.17,-0.195 0.279,-0.435 0.316,-0.691c0.028,-0.193 0.098,-0.379 0.205,-0.542c1.425,-2.17 1.769,-4.125 1.851,-5.021c3.83,-0.769 5.276,-3.289 5.276,-3.289c-1.133,1.76 -4.98,2.985 -4.98,2.985c4.698,-2.065 5.528,-6.508 5.528,-6.508Z" style="fill:#221e1f;fill-rule:nonzero;"/><path d="M110.474,58.778c0.149,5.04 -2.98,7.821 -2.98,7.821c3.007,-3.741 1.186,-6.991 1.186,-6.991c1.345,3.52 -1.251,6.735 -1.251,6.735c2.037,-3.27 0.37,-6.014 0.37,-6.014c1.053,2.891 -0.242,5.328 -0.498,5.765c0,-0.001 0.996,-3.584 -1.062,-6.843c-0,0 1.727,3.774 0.75,6.765c-0.195,-3 -2.422,-6.055 -2.422,-6.055c1.673,3.172 2.022,5.254 2.087,6.164c-2.81,-1.861 -3.456,-4.74 -3.456,-4.74c0.046,2.78 3.4,5.153 3.4,5.153c-0,0 -3.127,-0.305 -4.909,-3.2c-0,-0 1.116,3.011 4.944,3.444c-0,0 -4.132,0.039 -6.056,-3.201c0,-0 1.417,3.445 6.216,3.411c-0,0 -4.123,0.726 -7.981,-2.52c0,-0 2.962,3.415 8.06,2.822c-0,0 -3.939,0.887 -5.806,-0.059c0,-0 2.509,1.424 6.239,0.112c0.76,2.397 0.16,4.667 -0.01,5.219c-0.024,0.078 -0.091,0.134 -0.172,0.145c-0.077,0.01 -0.142,0.063 -0.168,0.136l-0.787,2.182c-0.032,0.088 -0.031,0.185 0.001,0.273l0.085,0.228c0.074,0.2 0.292,0.305 0.495,0.24c0.118,-0.038 0.211,-0.128 0.253,-0.245l0.572,-1.598c0.087,-0.243 0.102,-0.506 0.044,-0.758c-0.044,-0.19 -0.047,-0.388 -0.006,-0.579c0.541,-2.54 0.153,-4.486 -0.096,-5.351c3.291,-2.105 3.724,-4.978 3.724,-4.978c-0.417,2.051 -3.558,4.587 -3.558,4.587c3.63,-3.627 2.792,-8.07 2.792,-8.07Z" style="fill:#221e1f;fill-rule:nonzero;"/><path d="M122.449,77.308c0.085,3.734 -2.247,5.778 -2.247,5.778c2.247,-2.755 0.914,-5.172 0.914,-5.172c0.979,2.614 -0.961,4.983 -0.961,4.983c1.526,-2.412 0.305,-4.453 0.305,-4.453c0.765,2.147 -0.207,3.945 -0.398,4.268c0,-0.001 0.755,-2.65 -0.753,-5.075c0,0 1.261,2.805 0.522,5.015c-0.129,-2.223 -1.763,-4.498 -1.763,-4.498c1.223,2.359 1.47,3.903 1.514,4.577c-2.072,-1.393 -2.536,-3.529 -2.536,-3.529c0.02,2.06 2.492,3.835 2.492,3.835c0,-0 -2.314,-0.241 -3.62,-2.395c0,-0 0.812,2.236 3.646,2.576c-0,0 -3.062,0.008 -4.47,-2.402c-0,-0 1.031,2.56 4.587,2.558c-0,0 -3.058,0.517 -5.899,-1.907c-0,0 2.176,2.545 5.956,2.131c-0,0 -2.923,0.638 -4.301,-0.073c0,-0 1.852,1.068 4.621,0.115c0.552,1.779 0.095,3.458 -0.034,3.866c-0.018,0.058 -0.068,0.099 -0.127,0.106c-0.058,0.008 -0.106,0.046 -0.126,0.1l-0.593,1.612c-0.024,0.066 -0.025,0.137 -0.001,0.203l0.061,0.169c0.054,0.148 0.215,0.228 0.366,0.181c0.087,-0.028 0.157,-0.095 0.189,-0.18l0.432,-1.182c0.065,-0.179 0.078,-0.374 0.036,-0.561c-0.032,-0.141 -0.033,-0.288 -0.002,-0.429c0.414,-1.878 0.136,-3.322 -0.044,-3.964c2.449,-1.543 2.784,-3.669 2.784,-3.669c-0.319,1.517 -2.659,3.38 -2.659,3.38c2.707,-2.669 2.109,-5.964 2.109,-5.964Z" style="fill:#221e1f;fill-rule:nonzero;"/><path d="M181.973,42.345c-0.966,3.608 -3.777,4.917 -3.777,4.917c2.929,-2.015 2.327,-4.709 2.327,-4.709c0.207,2.784 -2.319,4.513 -2.319,4.513c2.141,-1.887 1.541,-4.189 1.541,-4.189c0.133,2.276 -1.304,3.73 -1.578,3.985c0,-0 1.468,-2.331 0.7,-5.081c-0,-0 0.423,3.045 -0.905,4.96c0.499,-2.171 -0.432,-4.812 -0.432,-4.812c0.513,2.607 0.318,4.159 0.171,4.818c-1.599,-1.918 -1.445,-4.098 -1.445,-4.098c-0.559,1.982 1.317,4.379 1.317,4.379c-0,-0 -2.154,-0.881 -2.803,-3.314c-0,-0 0.151,2.374 2.776,3.495c0,-0 -2.941,-0.851 -3.617,-3.559c0,-0 0.273,2.746 3.686,3.742c0,0 -3.08,-0.361 -5.128,-3.485c0,0 1.376,3.053 5.12,3.716c-0,0 -2.984,-0.208 -4.107,-1.276c-0,-0 1.477,1.544 4.402,1.405c0.031,1.863 -0.878,3.347 -1.116,3.702c-0.033,0.05 -0.093,0.076 -0.152,0.066c-0.057,-0.009 -0.114,0.014 -0.149,0.061l-1.022,1.381c-0.041,0.056 -0.061,0.125 -0.057,0.194l0.012,0.18c0.01,0.157 0.142,0.279 0.3,0.276c0.092,-0.002 0.177,-0.046 0.231,-0.12l0.746,-1.013c0.114,-0.154 0.18,-0.338 0.193,-0.529c0.009,-0.144 0.049,-0.285 0.119,-0.412c0.923,-1.687 1.061,-3.15 1.069,-3.817c2.783,-0.795 3.701,-2.741 3.701,-2.741c-0.732,1.366 -3.501,2.499 -3.501,2.499c3.348,-1.803 3.697,-5.134 3.697,-5.134Z" style="fill:#221e1f;fill-rule:nonzero;"/><path d="M212.007,40.864c-3.723,0.3 -5.898,-1.91 -5.898,-1.91c2.881,2.084 5.216,0.614 5.216,0.614c-2.553,1.128 -5.029,-0.672 -5.029,-0.672c2.496,1.384 4.463,0.048 4.463,0.048c-2.1,0.887 -3.951,0.021 -4.284,-0.152c0.001,0 2.689,0.602 5.023,-1.043c-0,-0 -2.728,1.419 -4.977,0.81c2.213,-0.258 4.389,-2.02 4.389,-2.02c-2.284,1.356 -3.812,1.693 -4.482,1.775c1.271,-2.149 3.377,-2.735 3.377,-2.735c-2.055,0.138 -3.685,2.709 -3.685,2.709c0,0 0.108,-2.324 2.183,-3.752c0,0 -2.185,0.939 -2.362,3.788c-0,-0 -0.184,-3.056 2.14,-4.601c0,-0 -2.495,1.177 -2.29,4.727c0,-0 -0.691,-3.023 1.565,-5.999c0,0 -2.415,2.319 -1.785,6.069c-0,-0 -0.804,-2.881 -0.174,-4.298c-0,0 -0.96,1.91 0.151,4.62c-1.744,0.653 -3.446,0.294 -3.861,0.189c-0.059,-0.015 -0.103,-0.062 -0.114,-0.121c-0.01,-0.057 -0.051,-0.103 -0.106,-0.12l-1.644,-0.5c-0.067,-0.02 -0.139,-0.016 -0.203,0.011l-0.165,0.071c-0.145,0.063 -0.215,0.228 -0.159,0.376c0.032,0.085 0.103,0.151 0.19,0.178l1.205,0.363c0.183,0.055 0.378,0.056 0.562,0.004c0.139,-0.04 0.285,-0.049 0.428,-0.027c1.9,0.305 3.325,-0.055 3.955,-0.272c1.682,2.356 3.823,2.568 3.823,2.568c-1.533,-0.231 -3.527,-2.46 -3.527,-2.46c2.82,2.549 6.075,1.762 6.075,1.762Z" style="fill:#221e1f;fill-rule:nonzero;"/><path d="M221.39,45.96c-1.474,2.524 -3.867,2.93 -3.867,2.93c2.628,-0.916 2.73,-3.072 2.73,-3.072c-0.419,2.143 -2.683,2.926 -2.683,2.926c2.006,-0.982 2.029,-2.843 2.029,-2.843c-0.37,1.745 -1.755,2.545 -2.015,2.682c0,-0.001 1.59,-1.457 1.579,-3.691c-0,0 -0.31,2.386 -1.709,3.556c0.826,-1.535 0.669,-3.72 0.669,-3.72c-0.152,2.073 -0.62,3.204 -0.867,3.671c-0.81,-1.778 -0.243,-3.392 -0.243,-3.392c-0.832,1.381 0.089,3.578 0.089,3.578c-0,-0 -1.444,-1.11 -1.431,-3.081c-0,0 -0.376,1.823 1.373,3.212c-0,-0 -2.044,-1.25 -1.994,-3.434c-0,0 -0.362,2.129 2.008,3.586c0,0 -2.25,-0.909 -3.149,-3.69c-0,0 0.407,2.589 3.095,3.863c0,-0 -2.209,-0.774 -2.836,-1.812c0,-0 0.796,1.47 3.032,1.971c-0.361,1.412 -1.354,2.343 -1.607,2.563c-0.035,0.03 -0.086,0.037 -0.129,0.018c-0.041,-0.019 -0.089,-0.013 -0.124,0.015l-1.057,0.831c-0.043,0.034 -0.072,0.082 -0.083,0.135l-0.029,0.138c-0.024,0.121 0.05,0.24 0.17,0.27c0.069,0.017 0.143,0.002 0.199,-0.043l0.772,-0.61c0.118,-0.093 0.206,-0.217 0.255,-0.359c0.037,-0.107 0.096,-0.205 0.175,-0.286c1.046,-1.083 1.452,-2.159 1.596,-2.66c2.264,-0.025 3.359,-1.304 3.359,-1.304c-0.835,0.88 -3.158,1.162 -3.158,1.162c2.899,-0.668 3.851,-3.11 3.851,-3.11Z" style="fill:#221e1f;fill-rule:nonzero;"/><path d="M205.647,48.384c-0.331,1.449 0.415,2.432 0.415,2.432c-0.656,-1.254 0.056,-2.09 0.056,-2.09c-0.59,0.941 -0.023,2.02 -0.023,2.02c-0.402,-1.063 0.237,-1.761 0.237,-1.761c-0.47,0.776 -0.235,1.555 -0.186,1.696c0.001,-0 -0.083,-1.094 0.699,-1.919c-0,0 -0.716,0.993 -0.604,1.914c0.228,-0.857 1.047,-1.613 1.047,-1.613c-0.665,0.822 -0.885,1.404 -0.956,1.664c0.919,-0.378 1.271,-1.174 1.271,-1.174c-0.173,0.802 -1.278,1.296 -1.278,1.296c-0,0 0.921,0.091 1.603,-0.645c-0,0 -0.495,0.807 -1.627,0.714c-0,0 1.192,0.247 1.934,-0.58c0,0 -0.607,0.916 -1.993,0.632c0,-0 1.151,0.445 2.453,-0.273c-0,-0 -1.052,0.818 -2.493,0.356c0,-0 1.089,0.481 1.683,0.314c-0,0 -0.807,0.269 -1.811,-0.324c-0.357,0.65 -0.313,1.341 -0.296,1.511l0.042,0.051l0.041,0.049l0.102,0.676l-0.016,0.079l-0.037,0.061c-0.033,0.054 -0.102,0.072 -0.157,0.041c-0.032,-0.017 -0.053,-0.049 -0.059,-0.085l-0.074,-0.495c-0.011,-0.075 -0.001,-0.152 0.031,-0.222c0.023,-0.052 0.035,-0.109 0.034,-0.167c-0.011,-0.766 0.212,-1.306 0.334,-1.542c-0.832,-0.797 -0.793,-1.653 -0.793,-1.653c0.004,0.617 0.767,1.531 0.767,1.531c-0.842,-1.258 -0.346,-2.494 -0.346,-2.494Z" style="fill:#221e1f;fill-rule:nonzero;"/><path d="M248,15.353c-1.474,2.524 -3.866,2.93 -3.866,2.93c2.627,-0.915 2.73,-3.073 2.73,-3.073c-0.42,2.144 -2.684,2.927 -2.684,2.927c2.006,-0.982 2.029,-2.843 2.029,-2.843c-0.37,1.745 -1.755,2.545 -2.015,2.681c0.001,-0 1.59,-1.456 1.579,-3.69c-0,0 -0.31,2.386 -1.708,3.556c0.825,-1.535 0.668,-3.72 0.668,-3.72c-0.151,2.073 -0.619,3.204 -0.867,3.671c-0.81,-1.778 -0.243,-3.392 -0.243,-3.392c-0.832,1.381 0.089,3.578 0.089,3.578c-0,-0 -1.444,-1.11 -1.431,-3.081c0,0 -0.376,1.823 1.373,3.212c0,-0 -2.043,-1.25 -1.994,-3.434c-0,0 -0.362,2.129 2.008,3.586c0,0 -2.249,-0.909 -3.149,-3.69c-0,-0 0.407,2.589 3.095,3.863c0,-0 -2.209,-0.774 -2.836,-1.812c0,-0 0.797,1.47 3.033,1.971c-0.362,1.412 -1.354,2.343 -1.608,2.563c-0.035,0.031 -0.086,0.038 -0.128,0.018c-0.041,-0.019 -0.089,-0.013 -0.125,0.015l-1.057,0.831c-0.043,0.034 -0.072,0.082 -0.083,0.135l-0.028,0.138c-0.025,0.121 0.049,0.24 0.169,0.27c0.07,0.018 0.143,0.002 0.199,-0.043l0.773,-0.61c0.117,-0.093 0.206,-0.217 0.254,-0.359c0.037,-0.107 0.096,-0.205 0.175,-0.286c1.046,-1.083 1.453,-2.159 1.596,-2.66c2.265,-0.025 3.36,-1.304 3.36,-1.304c-0.835,0.88 -3.158,1.162 -3.158,1.162c2.898,-0.668 3.85,-3.11 3.85,-3.11Z" style="fill:#221e1f;fill-rule:nonzero;"/><path d="M232.257,17.776c-0.331,1.45 0.415,2.433 0.415,2.433c-0.656,-1.254 0.057,-2.09 0.057,-2.09c-0.591,0.941 -0.024,2.02 -0.024,2.02c-0.402,-1.063 0.237,-1.761 0.237,-1.761c-0.47,0.776 -0.234,1.555 -0.185,1.696c-0,-0 -0.083,-1.094 0.698,-1.919c0,0 -0.715,0.993 -0.604,1.914c0.228,-0.856 1.047,-1.613 1.047,-1.613c-0.665,0.822 -0.885,1.404 -0.956,1.664c0.92,-0.378 1.271,-1.174 1.271,-1.174c-0.172,0.802 -1.278,1.296 -1.278,1.296c-0,0 0.922,0.091 1.603,-0.645c-0,0 -0.495,0.808 -1.627,0.714c-0,0 1.193,0.248 1.934,-0.58c0,0 -0.606,0.916 -1.992,0.632c-0,-0 1.15,0.445 2.452,-0.273c-0,-0 -1.052,0.818 -2.493,0.356c0,-0 1.089,0.482 1.683,0.314c0,0 -0.807,0.269 -1.811,-0.324c-0.357,0.65 -0.313,1.341 -0.295,1.51l0.041,0.052l0.041,0.049l0.103,0.676l-0.016,0.079l-0.038,0.061c-0.033,0.054 -0.101,0.072 -0.156,0.041c-0.033,-0.017 -0.054,-0.049 -0.06,-0.085l-0.074,-0.495c-0.011,-0.075 -0,-0.152 0.031,-0.222c0.023,-0.052 0.035,-0.109 0.035,-0.167c-0.012,-0.766 0.212,-1.306 0.333,-1.542c-0.832,-0.797 -0.793,-1.653 -0.793,-1.653c0.004,0.617 0.768,1.53 0.768,1.53c-0.843,-1.257 -0.347,-2.494 -0.347,-2.494Z" style="fill:#221e1f;fill-rule:nonzero;"/><path d="M136.804,129.218c-3.732,0.125 -5.802,-2.184 -5.802,-2.184c2.78,2.216 5.182,0.857 5.182,0.857c-2.603,1.008 -4.992,-0.906 -4.992,-0.906c2.428,1.499 4.456,0.256 4.456,0.256c-2.139,0.788 -3.948,-0.164 -4.272,-0.351c0.001,-0 2.658,0.726 5.065,-0.808c0,-0 -2.79,1.291 -5.008,0.576c2.222,-0.153 4.478,-1.812 4.478,-1.812c-2.345,1.248 -3.886,1.513 -4.56,1.564c1.37,-2.087 3.501,-2.574 3.501,-2.574c-2.06,0.042 -3.807,2.534 -3.807,2.534c-0,-0 0.216,-2.317 2.356,-3.646c-0,-0 -2.227,0.835 -2.537,3.672c-0,0 -0.041,-3.06 2.353,-4.495c0,0 -2.548,1.059 -2.508,4.615c-0,-0 -0.55,-3.052 1.843,-5.92c0,0 -2.521,2.205 -2.067,5.979c0,-0 -0.669,-2.915 0.027,-4.301c0,0 -1.048,1.863 -0.065,4.622c-1.773,0.571 -3.456,0.133 -3.866,0.008c-0.057,-0.017 -0.099,-0.067 -0.107,-0.127c-0.008,-0.057 -0.047,-0.104 -0.101,-0.124l-1.619,-0.576c-0.066,-0.023 -0.138,-0.022 -0.203,0.002l-0.168,0.063c-0.148,0.055 -0.226,0.217 -0.177,0.367c0.029,0.088 0.096,0.157 0.182,0.187l1.186,0.419c0.181,0.064 0.375,0.075 0.562,0.03c0.141,-0.033 0.287,-0.035 0.429,-0.006c1.883,0.393 3.323,0.1 3.963,-0.087c1.57,2.432 3.699,2.744 3.699,2.744c-1.52,-0.303 -3.409,-2.622 -3.409,-2.622c2.698,2.678 5.986,2.044 5.986,2.044Z" style="fill:#221e1f;fill-rule:nonzero;"/><path d="M142.776,103.717c-2.834,2.433 -5.893,1.925 -5.893,1.925c3.556,-0.009 4.579,-2.572 4.579,-2.572c-1.401,2.415 -4.462,2.416 -4.462,2.416c2.833,-0.349 3.637,-2.588 3.637,-2.588c-1.175,1.953 -3.182,2.342 -3.553,2.398c0.001,-0 2.529,-1.096 3.447,-3.798c0,-0 -1.37,2.752 -3.547,3.582c1.637,-1.509 2.36,-4.215 2.36,-4.215c-1.049,2.441 -2.085,3.612 -2.579,4.073c-0.237,-2.486 1.121,-4.199 1.121,-4.199c-1.58,1.321 -1.385,4.359 -1.385,4.359c-0,-0 -1.281,-1.943 -0.443,-4.319c0,0 -1.215,2.046 0.318,4.453c0,-0 -1.946,-2.362 -0.976,-4.98c0,0 -1.325,2.421 0.93,5.17c-0,0 -2.338,-2.037 -2.265,-5.771c0,-0 -0.588,3.296 2.128,5.957c-0,0 -2.346,-1.856 -2.67,-3.372c0,-0 0.348,2.109 2.841,3.646c-1.026,1.555 -2.614,2.266 -3.012,2.425c-0.055,0.022 -0.119,0.01 -0.162,-0.031c-0.042,-0.04 -0.103,-0.053 -0.157,-0.034l-1.623,0.563c-0.066,0.022 -0.122,0.068 -0.157,0.128l-0.092,0.155c-0.081,0.135 -0.04,0.31 0.092,0.397c0.076,0.05 0.172,0.062 0.259,0.031l1.187,-0.414c0.181,-0.063 0.339,-0.177 0.457,-0.328c0.089,-0.114 0.202,-0.208 0.331,-0.273c1.715,-0.872 2.655,-2.002 3.037,-2.547c2.746,0.915 4.603,-0.174 4.603,-0.174c-1.376,0.715 -4.3,0.087 -4.3,0.087c3.78,0.402 5.949,-2.15 5.949,-2.15Z" style="fill:#221e1f;fill-rule:nonzero;"/><path d="M148.829,76.422c-2.834,2.433 -5.893,1.926 -5.893,1.926c3.555,-0.01 4.579,-2.573 4.579,-2.573c-1.401,2.415 -4.462,2.416 -4.462,2.416c2.833,-0.349 3.637,-2.588 3.637,-2.588c-1.175,1.954 -3.182,2.342 -3.553,2.399c0.001,-0.001 2.528,-1.096 3.447,-3.799c0,-0 -1.37,2.752 -3.547,3.582c1.637,-1.509 2.36,-4.215 2.36,-4.215c-1.049,2.441 -2.086,3.612 -2.579,4.073c-0.237,-2.485 1.121,-4.198 1.121,-4.198c-1.581,1.321 -1.385,4.358 -1.385,4.358c-0,-0 -1.281,-1.943 -0.443,-4.318c-0,-0 -1.215,2.045 0.318,4.452c0,0 -1.947,-2.362 -0.976,-4.979c0,-0 -1.325,2.42 0.93,5.169c-0,0 -2.338,-2.037 -2.265,-5.771c0,-0 -0.588,3.297 2.128,5.957c-0,0 -2.346,-1.856 -2.67,-3.372c0,0 0.348,2.109 2.84,3.646c-1.026,1.555 -2.613,2.266 -3.011,2.425c-0.055,0.023 -0.119,0.01 -0.163,-0.031c-0.041,-0.04 -0.102,-0.053 -0.156,-0.034l-1.623,0.563c-0.066,0.023 -0.122,0.068 -0.158,0.128l-0.091,0.155c-0.081,0.136 -0.04,0.31 0.092,0.397c0.076,0.05 0.172,0.062 0.258,0.032l1.187,-0.415c0.181,-0.063 0.34,-0.177 0.458,-0.328c0.089,-0.114 0.202,-0.207 0.331,-0.273c1.715,-0.871 2.655,-2.001 3.037,-2.547c2.746,0.915 4.603,-0.174 4.603,-0.174c-1.376,0.715 -4.3,0.087 -4.3,0.087c3.78,0.402 5.949,-2.15 5.949,-2.15Z" style="fill:#221e1f;fill-rule:nonzero;"/><path d="M151.014,84.075c-2.482,0.563 -4.164,-0.716 -4.164,-0.716c2.146,1.126 3.578,-0.092 3.578,-0.092c-1.612,1.008 -3.457,0.035 -3.457,0.035c1.817,0.691 3.015,-0.401 3.015,-0.401c-1.33,0.802 -2.663,0.397 -2.904,0.313c0,0 1.872,0.145 3.286,-1.191c0,-0 -1.702,1.222 -3.278,1.029c1.467,-0.388 2.764,-1.788 2.764,-1.788c-1.409,1.136 -2.406,1.512 -2.85,1.633c0.648,-1.573 2.012,-2.173 2.012,-2.173c-1.373,0.293 -2.222,2.185 -2.222,2.185c-0,-0 -0.154,-1.579 1.107,-2.743c0,0 -1.382,0.846 -1.225,2.784c-0,0 -0.421,-2.043 0.997,-3.311c0,0 -1.569,1.037 -1.086,3.41c0,0 -0.759,-1.971 0.473,-4.197c0,-0 -1.404,1.798 -0.614,4.266c-0,0 -0.823,-1.865 -0.535,-2.882c-0,0 -0.462,1.382 0.55,3.102c-1.113,0.609 -2.296,0.532 -2.586,0.502c-0.041,-0.005 -0.075,-0.032 -0.088,-0.071c-0.013,-0.037 -0.045,-0.064 -0.084,-0.07l-1.157,-0.178c-0.047,-0.007 -0.095,0.003 -0.135,0.028l-0.105,0.063c-0.092,0.057 -0.123,0.175 -0.071,0.269c0.03,0.055 0.084,0.092 0.146,0.101l0.847,0.129c0.129,0.019 0.261,0.001 0.38,-0.052c0.09,-0.041 0.188,-0.061 0.286,-0.06c1.311,0.021 2.237,-0.36 2.641,-0.567c1.363,1.425 2.828,1.361 2.828,1.361c-1.056,-0.008 -2.618,-1.317 -2.618,-1.317c2.15,1.446 4.269,0.599 4.269,0.599Z" style="fill:#221e1f;fill-rule:nonzero;"/><path d="M193.705,19.908c0.246,5.036 -2.828,7.877 -2.828,7.877c2.934,-3.799 1.05,-7.012 1.05,-7.012c1.414,3.493 -1.12,6.758 -1.12,6.758c1.974,-3.309 0.253,-6.021 0.253,-6.021c1.109,2.871 -0.138,5.332 -0.385,5.773c0,-0 0.925,-3.602 -1.196,-6.82c0,0 1.8,3.74 0.882,6.749c-0.253,-2.996 -2.539,-6.007 -2.539,-6.007c1.734,3.139 2.123,5.214 2.206,6.122c-2.846,-1.806 -3.547,-4.671 -3.547,-4.671c0.099,2.778 3.499,5.085 3.499,5.085c-0,0 -3.132,-0.243 -4.97,-3.103c-0,-0 1.174,2.988 5.01,3.347c0,0 -4.131,0.12 -6.117,-3.083c-0,-0 1.483,3.417 6.281,3.29c-0,0 -4.108,0.806 -8.028,-2.365c-0,0 3.027,3.357 8.113,2.665c-0,0 -3.921,0.964 -5.806,0.054c-0,-0 2.537,1.375 6.239,-0.009c0.808,2.382 0.252,4.663 0.092,5.219c-0.022,0.077 -0.088,0.135 -0.168,0.147c-0.077,0.012 -0.141,0.065 -0.166,0.139l-0.744,2.197c-0.03,0.089 -0.028,0.186 0.007,0.273l0.088,0.226c0.078,0.199 0.299,0.3 0.5,0.231c0.117,-0.04 0.208,-0.132 0.248,-0.25l0.541,-1.609c0.082,-0.245 0.092,-0.508 0.029,-0.759c-0.048,-0.189 -0.054,-0.387 -0.017,-0.578c0.491,-2.55 0.065,-4.488 -0.2,-5.348c3.249,-2.169 3.626,-5.05 3.626,-5.05c-0.377,2.058 -3.468,4.656 -3.468,4.656c3.559,-3.698 2.635,-8.123 2.635,-8.123Z" style="fill:#221e1f;fill-rule:nonzero;"/><path d="M166.041,25.07c0.161,3.275 -1.838,5.122 -1.838,5.122c1.908,-2.47 0.682,-4.56 0.682,-4.56c0.92,2.272 -0.728,4.395 -0.728,4.395c1.283,-2.152 0.165,-3.915 0.165,-3.915c0.721,1.867 -0.091,3.467 -0.251,3.755c-0,-0.001 0.602,-2.343 -0.778,-4.436c0,-0 1.171,2.432 0.574,4.389c-0.165,-1.949 -1.652,-3.907 -1.652,-3.907c1.128,2.042 1.381,3.391 1.435,3.982c-1.851,-1.175 -2.307,-3.038 -2.307,-3.038c0.065,1.807 2.276,3.307 2.276,3.307c0,0 -2.037,-0.158 -3.232,-2.019c-0,0 0.763,1.944 3.258,2.178c0,-0 -2.686,0.077 -3.978,-2.005c-0,-0 0.965,2.222 4.085,2.139c-0,0 -2.672,0.524 -5.221,-1.537c-0,-0 1.969,2.183 5.276,1.733c-0,-0 -2.55,0.626 -3.776,0.034c0,0 1.65,0.895 4.058,-0.005c0.525,1.548 0.163,3.032 0.06,3.393c-0.015,0.051 -0.058,0.088 -0.11,0.097c-0.05,0.007 -0.092,0.042 -0.108,0.09l-0.484,1.428c-0.019,0.058 -0.018,0.121 0.005,0.178l0.057,0.147c0.051,0.129 0.194,0.195 0.325,0.15c0.077,-0.026 0.136,-0.086 0.161,-0.162l0.352,-1.047c0.054,-0.159 0.061,-0.33 0.02,-0.493c-0.032,-0.123 -0.036,-0.252 -0.012,-0.376c0.32,-1.659 0.043,-2.919 -0.13,-3.478c2.113,-1.411 2.358,-3.285 2.358,-3.285c-0.245,1.339 -2.255,3.028 -2.255,3.028c2.314,-2.404 1.713,-5.282 1.713,-5.282Z" style="fill:#221e1f;fill-rule:nonzero;"/><path d="M218.919,9.879c0.394,3.714 -1.76,5.945 -1.76,5.945c2.01,-2.933 0.481,-5.231 0.481,-5.231c1.193,2.524 -0.543,5.046 -0.543,5.046c1.32,-2.531 -0.067,-4.464 -0.067,-4.464c0.941,2.077 0.123,3.95 -0.041,4.286c-0.001,0 0.532,-2.703 -1.172,-4.993c0,0 1.489,2.69 0.936,4.954c-0.313,-2.205 -2.131,-4.336 -2.131,-4.336c1.415,2.249 1.79,3.767 1.89,4.435c-2.181,-1.216 -2.82,-3.305 -2.82,-3.305c0.19,2.051 2.802,3.614 2.802,3.614c-0,-0 -2.327,-0.048 -3.807,-2.087c0,0 0.995,2.161 3.847,2.265c-0,0 -3.05,0.262 -4.654,-2.022c0,-0 1.241,2.464 4.784,2.168c-0,0 -3.004,0.769 -6.037,-1.411c-0,0 2.38,2.356 6.112,1.63c0,-0 -2.859,0.878 -4.291,0.284c-0,-0 1.933,0.91 4.614,-0.269c0.697,1.727 0.382,3.437 0.288,3.855c-0.014,0.058 -0.06,0.104 -0.119,0.116c-0.057,0.012 -0.102,0.055 -0.117,0.11l-0.458,1.656c-0.018,0.067 -0.012,0.139 0.017,0.202l0.075,0.163c0.066,0.144 0.233,0.21 0.379,0.15c0.085,-0.035 0.149,-0.107 0.173,-0.195l0.332,-1.213c0.051,-0.185 0.048,-0.38 -0.01,-0.562c-0.043,-0.139 -0.056,-0.285 -0.037,-0.428c0.256,-1.906 -0.141,-3.322 -0.373,-3.946c2.312,-1.742 2.469,-3.888 2.469,-3.888c-0.192,1.538 -2.369,3.589 -2.369,3.589c2.476,-2.884 1.607,-6.118 1.607,-6.118Z" style="fill:#221e1f;fill-rule:nonzero;"/><path d="M246.338,5.712c-2.114,1.417 -4.143,0.827 -4.143,0.827c2.407,0.28 3.307,-1.371 3.307,-1.371c-1.143,1.521 -3.215,1.274 -3.215,1.274c1.945,-0.007 2.67,-1.457 2.67,-1.457c-0.953,1.227 -2.342,1.328 -2.597,1.336c0,-0 1.799,-0.537 2.639,-2.292c-0,-0 -1.149,1.752 -2.69,2.138c1.23,-0.89 1.937,-2.662 1.937,-2.662c-0.906,1.567 -1.702,2.275 -2.074,2.547c0.041,-1.7 1.098,-2.75 1.098,-2.75c-1.176,0.767 -1.289,2.837 -1.289,2.837c-0,0 -0.71,-1.417 0.049,-2.957c-0,-0 -0.987,1.285 -0.144,3.038c-0,-0 -1.127,-1.755 -0.259,-3.448c0,0 -1.092,1.531 0.212,3.573c0,-0 -1.417,-1.567 -1.066,-4.088c-0,0 -0.665,2.183 0.958,4.203c0,-0 -1.437,-1.445 -1.534,-2.497c0,-0 0.065,1.455 1.628,2.696c-0.82,0.969 -1.952,1.322 -2.233,1.398c-0.04,0.01 -0.082,-0.003 -0.108,-0.035c-0.025,-0.03 -0.065,-0.044 -0.104,-0.035l-1.143,0.25c-0.047,0.01 -0.088,0.036 -0.117,0.074l-0.075,0.097c-0.065,0.085 -0.052,0.207 0.031,0.276c0.047,0.04 0.111,0.056 0.172,0.042l0.837,-0.184c0.127,-0.029 0.244,-0.093 0.336,-0.185c0.069,-0.07 0.153,-0.125 0.246,-0.158c1.23,-0.451 1.958,-1.14 2.261,-1.478c1.784,0.84 3.128,0.254 3.128,0.254c-0.989,0.372 -2.917,-0.289 -2.917,-0.289c2.526,0.577 4.199,-0.974 4.199,-0.974Z" style="fill:#221e1f;fill-rule:nonzero;"/><path d="M138.969,40.777c0.035,2.545 -1.566,3.924 -1.566,3.924c1.547,-1.864 0.654,-3.519 0.654,-3.519c0.651,1.787 -0.685,3.389 -0.685,3.389c1.054,-1.634 0.235,-3.032 0.235,-3.032c0.508,1.467 -0.165,2.687 -0.298,2.905c0.001,-0 0.531,-1.801 -0.481,-3.462c-0,0 0.841,1.919 0.324,3.421c-0.074,-1.517 -1.174,-3.076 -1.174,-3.076c0.819,1.614 0.979,2.668 1.004,3.128c-1.403,-0.962 -1.706,-2.42 -1.706,-2.42c0,1.403 1.675,2.628 1.675,2.628c-0,-0 -1.576,-0.179 -2.452,-1.655c-0,0 0.539,1.529 2.467,1.778c0,0 -2.085,-0.013 -3.03,-1.663c-0,-0 0.687,1.75 3.11,1.771c-0,-0 -2.087,0.333 -4.008,-1.336c-0,-0 1.467,1.747 4.045,1.489c0,-0 -1.995,0.416 -2.93,-0.076c0,-0 1.256,0.738 3.148,0.106c0.365,1.216 0.044,2.357 -0.046,2.634c-0.013,0.039 -0.047,0.067 -0.088,0.072c-0.039,0.004 -0.072,0.03 -0.086,0.067l-0.415,1.095c-0.016,0.044 -0.017,0.093 -0.001,0.138l0.041,0.115c0.036,0.102 0.145,0.157 0.248,0.126c0.059,-0.018 0.107,-0.063 0.129,-0.122l0.302,-0.802c0.046,-0.122 0.056,-0.255 0.028,-0.382c-0.021,-0.097 -0.02,-0.197 0.002,-0.293c0.293,-1.277 0.112,-2.263 -0.006,-2.701c1.678,-1.037 1.919,-2.483 1.919,-2.483c-0.227,1.032 -1.833,2.287 -1.833,2.287c1.862,-1.802 1.474,-4.051 1.474,-4.051Z" style="fill:#221e1f;fill-rule:nonzero;"/><path d="M145.116,50.18c0.035,2.544 -1.567,3.923 -1.567,3.923c1.548,-1.864 0.654,-3.519 0.654,-3.519c0.651,1.788 -0.685,3.389 -0.685,3.389c1.055,-1.634 0.235,-3.032 0.235,-3.032c0.509,1.468 -0.164,2.687 -0.297,2.906c0,-0.001 0.531,-1.801 -0.482,-3.462c0,-0 0.842,1.918 0.325,3.42c-0.074,-1.516 -1.174,-3.076 -1.174,-3.076c0.819,1.615 0.978,2.669 1.004,3.128c-1.404,-0.961 -1.707,-2.42 -1.707,-2.42c0.001,1.404 1.675,2.628 1.675,2.628c0,0 -1.575,-0.178 -2.452,-1.654c0,0 0.539,1.529 2.468,1.778c0,0 -2.086,-0.013 -3.031,-1.664c0,-0 0.687,1.75 3.11,1.771c0,0 -2.086,0.334 -4.008,-1.335c0,-0 1.468,1.747 4.046,1.488c-0,0 -1.996,0.417 -2.93,-0.076c0,-0 1.255,0.739 3.148,0.107c0.365,1.215 0.043,2.356 -0.047,2.633c-0.012,0.04 -0.047,0.067 -0.087,0.072c-0.039,0.005 -0.073,0.031 -0.087,0.067l-0.414,1.095c-0.017,0.045 -0.017,0.094 -0.001,0.138l0.04,0.116c0.036,0.101 0.146,0.157 0.248,0.125c0.06,-0.018 0.108,-0.063 0.13,-0.121l0.302,-0.802c0.045,-0.123 0.055,-0.255 0.028,-0.383c-0.021,-0.096 -0.021,-0.196 0.001,-0.292c0.294,-1.277 0.113,-2.263 -0.006,-2.702c1.678,-1.036 1.92,-2.483 1.92,-2.483c-0.227,1.032 -1.833,2.288 -1.833,2.288c1.861,-1.803 1.474,-4.051 1.474,-4.051Z" style="fill:#221e1f;fill-rule:nonzero;"/><path d="M161.24,54.807c-2.443,2.732 -5.484,2.633 -5.484,2.633c3.457,-0.468 4.122,-3.093 4.122,-3.093c-1.051,2.529 -4.029,2.926 -4.029,2.926c2.711,-0.705 3.204,-2.986 3.204,-2.986c-0.891,2.051 -2.793,2.688 -3.146,2.791c0,-0.001 2.318,-1.392 2.863,-4.14c-0,0 -0.978,2.854 -2.989,3.942c1.398,-1.679 1.752,-4.404 1.752,-4.404c-0.705,2.509 -1.562,3.782 -1.983,4.294c-0.551,-2.387 0.549,-4.228 0.549,-4.228c-1.367,1.488 -0.785,4.418 -0.785,4.418c-0,-0 -1.497,-1.725 -0.988,-4.143c0,-0 -0.918,2.145 0.884,4.289c0,0 -2.198,-2.046 -1.592,-4.717c0,-0 -0.977,2.525 1.571,4.908c0,0 -2.537,-1.68 -2.947,-5.322c0,0 -0.147,3.283 2.838,5.521c-0,-0 -2.521,-1.503 -3.032,-2.936c0,-0 0.611,2.006 3.233,3.18c-0.797,1.645 -2.25,2.541 -2.616,2.747c-0.051,0.029 -0.115,0.025 -0.162,-0.009c-0.046,-0.033 -0.107,-0.039 -0.157,-0.013l-1.507,0.757c-0.061,0.031 -0.109,0.082 -0.136,0.145l-0.069,0.162c-0.061,0.143 0.001,0.308 0.141,0.375c0.081,0.038 0.175,0.038 0.255,-0.003l1.102,-0.557c0.167,-0.084 0.307,-0.216 0.402,-0.377c0.072,-0.123 0.17,-0.228 0.287,-0.309c1.556,-1.068 2.324,-2.289 2.626,-2.869c2.789,0.536 4.454,-0.762 4.454,-0.762c-1.245,0.873 -4.171,0.638 -4.171,0.638c3.729,-0.096 5.51,-2.858 5.51,-2.858Z" style="fill:#221e1f;fill-rule:nonzero;"/><path d="M166.305,70.258c-1.926,2.153 -4.323,2.076 -4.323,2.076c2.725,-0.369 3.25,-2.438 3.25,-2.438c-0.83,1.994 -3.177,2.306 -3.177,2.306c2.137,-0.556 2.526,-2.354 2.526,-2.354c-0.703,1.617 -2.202,2.119 -2.48,2.2c0,-0 1.827,-1.097 2.257,-3.263c-0,-0 -0.771,2.25 -2.356,3.107c1.102,-1.323 1.381,-3.471 1.381,-3.471c-0.556,1.977 -1.232,2.981 -1.564,3.384c-0.434,-1.881 0.433,-3.333 0.433,-3.333c-1.077,1.174 -0.619,3.483 -0.619,3.483c0,-0 -1.179,-1.359 -0.778,-3.266c-0,-0 -0.724,1.692 0.696,3.382c0,-0 -1.732,-1.614 -1.254,-3.72c-0,0 -0.77,1.991 1.238,3.87c0,-0 -2,-1.324 -2.323,-4.195c-0,0 -0.116,2.588 2.237,4.351c-0,0 -1.987,-1.184 -2.39,-2.314c0,0 0.481,1.582 2.549,2.507c-0.629,1.297 -1.774,2.003 -2.063,2.166c-0.04,0.022 -0.09,0.019 -0.128,-0.008c-0.036,-0.026 -0.083,-0.03 -0.123,-0.01l-1.188,0.597c-0.048,0.024 -0.086,0.064 -0.107,0.114l-0.055,0.128c-0.048,0.112 0.001,0.242 0.111,0.295c0.064,0.031 0.138,0.03 0.202,-0.002l0.868,-0.439c0.132,-0.066 0.242,-0.17 0.317,-0.297c0.057,-0.097 0.134,-0.18 0.226,-0.243c1.227,-0.843 1.833,-1.805 2.07,-2.262c2.198,0.422 3.512,-0.601 3.512,-0.601c-0.983,0.688 -3.289,0.504 -3.289,0.504c2.94,-0.077 4.344,-2.254 4.344,-2.254Z" style="fill:#221e1f;fill-rule:nonzero;"/><path d="M182.444,88.672c-1.925,2.154 -4.323,2.076 -4.323,2.076c2.726,-0.369 3.25,-2.438 3.25,-2.438c-0.829,1.994 -3.176,2.306 -3.176,2.306c2.137,-0.556 2.526,-2.354 2.526,-2.354c-0.703,1.617 -2.202,2.119 -2.481,2.2c0.001,-0 1.828,-1.097 2.257,-3.263c0,-0 -0.77,2.25 -2.356,3.108c1.103,-1.324 1.381,-3.473 1.381,-3.473c-0.555,1.979 -1.231,2.982 -1.563,3.386c-0.434,-1.882 0.433,-3.333 0.433,-3.333c-1.078,1.173 -0.619,3.482 -0.619,3.482c-0,0 -1.18,-1.359 -0.779,-3.266c0,-0 -0.723,1.692 0.697,3.382c0,-0 -1.733,-1.614 -1.254,-3.719c-0,-0 -0.771,1.991 1.238,3.869c-0,-0 -2,-1.324 -2.323,-4.195c-0,0 -0.116,2.588 2.236,4.352c0,-0 -1.987,-1.185 -2.389,-2.315c-0,0 0.481,1.582 2.548,2.507c-0.629,1.297 -1.773,2.003 -2.062,2.166c-0.04,0.023 -0.09,0.019 -0.128,-0.008c-0.036,-0.026 -0.084,-0.03 -0.124,-0.01l-1.187,0.597c-0.048,0.024 -0.086,0.065 -0.107,0.114l-0.055,0.128c-0.048,0.112 0.001,0.242 0.111,0.295c0.064,0.031 0.138,0.03 0.201,-0.002l0.869,-0.438c0.132,-0.067 0.242,-0.171 0.317,-0.298c0.057,-0.097 0.134,-0.18 0.226,-0.243c1.226,-0.842 1.832,-1.805 2.07,-2.262c2.198,0.422 3.511,-0.601 3.511,-0.601c-0.982,0.688 -3.288,0.504 -3.288,0.504c2.94,-0.077 4.343,-2.254 4.343,-2.254Z" style="fill:#221e1f;fill-rule:nonzero;"/><path d="M185.336,63.142c-1.925,2.154 -4.322,2.076 -4.322,2.076c2.725,-0.369 3.249,-2.438 3.249,-2.438c-0.829,1.994 -3.176,2.306 -3.176,2.306c2.137,-0.556 2.526,-2.354 2.526,-2.354c-0.703,1.617 -2.202,2.119 -2.48,2.2c0,-0 1.827,-1.097 2.256,-3.263c0,-0 -0.77,2.25 -2.355,3.108c1.102,-1.324 1.381,-3.472 1.381,-3.472c-0.556,1.978 -1.232,2.981 -1.564,3.385c-0.434,-1.882 0.433,-3.333 0.433,-3.333c-1.077,1.173 -0.619,3.482 -0.619,3.482c0,0 -1.18,-1.359 -0.778,-3.266c-0,-0 -0.724,1.692 0.696,3.382c0,-0 -1.733,-1.614 -1.254,-3.719c-0,-0 -0.77,1.991 1.238,3.869c-0,-0 -2,-1.324 -2.323,-4.195c-0,0 -0.116,2.588 2.237,4.352c-0,-0 -1.987,-1.185 -2.39,-2.315c0,0 0.481,1.582 2.549,2.507c-0.629,1.297 -1.774,2.004 -2.063,2.166c-0.04,0.022 -0.09,0.019 -0.128,-0.008c-0.036,-0.026 -0.084,-0.03 -0.124,-0.01l-1.187,0.597c-0.048,0.024 -0.086,0.065 -0.107,0.114l-0.055,0.128c-0.048,0.112 0.001,0.243 0.111,0.296c0.064,0.03 0.138,0.029 0.202,-0.003l0.868,-0.439c0.132,-0.066 0.242,-0.17 0.317,-0.297c0.057,-0.097 0.134,-0.18 0.226,-0.243c1.227,-0.843 1.833,-1.804 2.07,-2.262c2.198,0.422 3.512,-0.601 3.512,-0.601c-0.983,0.688 -3.289,0.504 -3.289,0.504c2.94,-0.076 4.343,-2.254 4.343,-2.254Z" style="fill:#221e1f;fill-rule:nonzero;"/><path d="M200.966,70.916c-1.925,2.153 -4.323,2.075 -4.323,2.075c2.726,-0.369 3.25,-2.438 3.25,-2.438c-0.829,1.994 -3.176,2.306 -3.176,2.306c2.137,-0.555 2.526,-2.354 2.526,-2.354c-0.703,1.617 -2.202,2.12 -2.48,2.2c-0,-0 1.827,-1.097 2.256,-3.263c0,0 -0.77,2.25 -2.355,3.108c1.102,-1.324 1.381,-3.472 1.381,-3.472c-0.556,1.978 -1.232,2.981 -1.564,3.385c-0.434,-1.882 0.433,-3.333 0.433,-3.333c-1.077,1.174 -0.619,3.482 -0.619,3.482c-0,0 -1.18,-1.359 -0.778,-3.265c-0,-0 -0.724,1.691 0.696,3.381c0,0 -1.733,-1.613 -1.254,-3.719c-0,-0 -0.771,1.991 1.238,3.87c-0,-0 -2,-1.325 -2.323,-4.196c-0,0 -0.116,2.588 2.237,4.352c-0,-0 -1.987,-1.185 -2.39,-2.314c-0,-0 0.481,1.581 2.549,2.507c-0.629,1.296 -1.774,2.003 -2.063,2.165c-0.04,0.023 -0.09,0.02 -0.128,-0.007c-0.036,-0.027 -0.084,-0.03 -0.123,-0.01l-1.188,0.597c-0.048,0.024 -0.086,0.064 -0.107,0.114l-0.055,0.128c-0.048,0.112 0.001,0.242 0.111,0.295c0.064,0.03 0.138,0.029 0.202,-0.002l0.868,-0.439c0.132,-0.067 0.242,-0.17 0.317,-0.298c0.057,-0.096 0.134,-0.18 0.226,-0.243c1.226,-0.842 1.832,-1.804 2.07,-2.262c2.199,0.423 3.511,-0.601 3.511,-0.601c-0.982,0.688 -3.288,0.504 -3.288,0.504c2.94,-0.076 4.343,-2.253 4.343,-2.253Z" style="fill:#221e1f;fill-rule:nonzero;"/><path d="M109.052,112.249c-1.926,2.153 -4.323,2.075 -4.323,2.075c2.725,-0.369 3.249,-2.438 3.249,-2.438c-0.829,1.994 -3.176,2.306 -3.176,2.306c2.137,-0.556 2.526,-2.354 2.526,-2.354c-0.703,1.617 -2.202,2.119 -2.48,2.2c0,-0 1.827,-1.097 2.257,-3.263c-0,-0 -0.771,2.249 -2.356,3.108c1.102,-1.324 1.381,-3.473 1.381,-3.473c-0.556,1.978 -1.232,2.982 -1.564,3.385c-0.434,-1.881 0.433,-3.332 0.433,-3.332c-1.077,1.173 -0.619,3.482 -0.619,3.482c0,0 -1.179,-1.36 -0.778,-3.266c-0,0 -0.724,1.691 0.696,3.382c0,-0 -1.733,-1.614 -1.254,-3.719c-0,-0 -0.77,1.99 1.238,3.869c0,0 -2,-1.325 -2.323,-4.195c-0,0 -0.116,2.588 2.237,4.352c-0,-0 -1.987,-1.185 -2.39,-2.315c0,0 0.481,1.582 2.549,2.507c-0.629,1.297 -1.774,2.003 -2.063,2.166c-0.04,0.023 -0.09,0.019 -0.128,-0.008c-0.036,-0.026 -0.083,-0.03 -0.124,-0.01l-1.187,0.597c-0.048,0.024 -0.086,0.065 -0.107,0.114l-0.055,0.128c-0.048,0.112 0.001,0.242 0.111,0.295c0.064,0.031 0.138,0.03 0.202,-0.002l0.868,-0.438c0.132,-0.067 0.242,-0.171 0.317,-0.298c0.057,-0.097 0.134,-0.18 0.226,-0.243c1.227,-0.843 1.833,-1.805 2.07,-2.262c2.199,0.422 3.512,-0.601 3.512,-0.601c-0.983,0.688 -3.289,0.503 -3.289,0.503c2.94,-0.076 4.344,-2.252 4.344,-2.252Z" style="fill:#221e1f;fill-rule:nonzero;"/><path d="M98.576,149.235c-1.925,2.153 -4.322,2.076 -4.322,2.076c2.725,-0.369 3.249,-2.439 3.249,-2.439c-0.828,1.994 -3.176,2.306 -3.176,2.306c2.137,-0.555 2.526,-2.354 2.526,-2.354c-0.703,1.618 -2.202,2.12 -2.48,2.2c0,0 1.827,-1.097 2.256,-3.262c0,-0 -0.77,2.249 -2.355,3.107c1.102,-1.324 1.381,-3.472 1.381,-3.472c-0.556,1.978 -1.232,2.981 -1.564,3.385c-0.434,-1.882 0.433,-3.333 0.433,-3.333c-1.077,1.174 -0.619,3.483 -0.619,3.483c0,-0 -1.18,-1.36 -0.778,-3.266c-0,-0 -0.724,1.691 0.697,3.381c-0,0 -1.734,-1.613 -1.255,-3.719c-0,0 -0.77,1.991 1.238,3.87c-0,-0 -2,-1.325 -2.323,-4.196c-0,0 -0.116,2.588 2.237,4.352c-0,0 -1.987,-1.184 -2.39,-2.314c0,-0 0.481,1.582 2.549,2.507c-0.629,1.296 -1.774,2.003 -2.062,2.165c-0.041,0.023 -0.091,0.02 -0.129,-0.007c-0.036,-0.026 -0.084,-0.03 -0.123,-0.01l-1.188,0.597c-0.048,0.024 -0.086,0.064 -0.107,0.114l-0.055,0.128c-0.048,0.112 0.001,0.242 0.111,0.295c0.064,0.03 0.138,0.029 0.202,-0.002l0.868,-0.439c0.132,-0.067 0.242,-0.17 0.317,-0.298c0.057,-0.096 0.134,-0.179 0.226,-0.242c1.226,-0.843 1.832,-1.805 2.07,-2.263c2.199,0.423 3.511,-0.6 3.511,-0.6c-0.982,0.688 -3.288,0.503 -3.288,0.503c2.94,-0.076 4.343,-2.253 4.343,-2.253Z" style="fill:#221e1f;fill-rule:nonzero;"/><path d="M204.834,88.348c-1.925,2.153 -4.322,2.076 -4.322,2.076c2.725,-0.37 3.249,-2.439 3.249,-2.439c-0.829,1.994 -3.176,2.306 -3.176,2.306c2.137,-0.555 2.526,-2.353 2.526,-2.353c-0.703,1.617 -2.202,2.119 -2.48,2.2c0,-0.001 1.827,-1.098 2.256,-3.264c0,0 -0.77,2.25 -2.355,3.108c1.102,-1.324 1.381,-3.472 1.381,-3.472c-0.556,1.978 -1.232,2.981 -1.564,3.385c-0.434,-1.882 0.433,-3.333 0.433,-3.333c-1.077,1.173 -0.619,3.483 -0.619,3.483c0,-0 -1.18,-1.36 -0.778,-3.266c-0,-0 -0.724,1.691 0.696,3.381c0,0 -1.733,-1.613 -1.254,-3.719c-0,0 -0.77,1.991 1.238,3.869c-0,0 -2,-1.324 -2.323,-4.194c-0,-0 -0.116,2.587 2.237,4.351c-0,0 -1.987,-1.185 -2.39,-2.314c0,-0 0.481,1.581 2.549,2.507c-0.629,1.296 -1.774,2.003 -2.063,2.165c-0.04,0.023 -0.09,0.02 -0.128,-0.007c-0.036,-0.027 -0.084,-0.03 -0.124,-0.011l-1.187,0.597c-0.048,0.025 -0.086,0.065 -0.107,0.114l-0.055,0.129c-0.048,0.112 0.001,0.242 0.111,0.295c0.064,0.03 0.138,0.03 0.202,-0.002l0.868,-0.439c0.132,-0.067 0.242,-0.17 0.317,-0.298c0.057,-0.096 0.134,-0.18 0.226,-0.243c1.227,-0.842 1.833,-1.804 2.07,-2.261c2.198,0.422 3.512,-0.601 3.512,-0.601c-0.983,0.688 -3.289,0.503 -3.289,0.503c2.94,-0.076 4.343,-2.253 4.343,-2.253Z" style="fill:#221e1f;fill-rule:nonzero;"/><path d="M210.848,96.605c-2.403,0.193 -3.806,-1.234 -3.806,-1.234c1.859,1.346 3.366,0.397 3.366,0.397c-1.648,0.728 -3.246,-0.434 -3.246,-0.434c1.611,0.894 2.881,0.031 2.881,0.031c-1.355,0.572 -2.55,0.013 -2.765,-0.098c0.001,-0 1.736,0.388 3.242,-0.673c-0,-0 -1.761,0.916 -3.212,0.522c1.428,-0.166 2.832,-1.303 2.832,-1.303c-1.474,0.875 -2.46,1.092 -2.892,1.146c0.82,-1.388 2.179,-1.766 2.179,-1.766c-1.326,0.089 -2.378,1.749 -2.378,1.749c0,-0 0.069,-1.501 1.409,-2.422c0,0 -1.41,0.606 -1.525,2.444c0,0 -0.119,-1.972 1.382,-2.969c0,0 -1.611,0.76 -1.478,3.051c-0,-0 -0.447,-1.951 1.01,-3.872c0,0 -1.559,1.497 -1.152,3.917c-0,-0 -0.52,-1.859 -0.113,-2.774c0,0 -0.619,1.233 0.098,2.982c-1.126,0.421 -2.225,0.189 -2.493,0.122c-0.037,-0.01 -0.066,-0.041 -0.073,-0.079c-0.006,-0.037 -0.033,-0.066 -0.069,-0.077l-1.061,-0.323c-0.043,-0.013 -0.089,-0.01 -0.13,0.008l-0.107,0.046c-0.093,0.04 -0.139,0.146 -0.103,0.242c0.022,0.055 0.067,0.097 0.123,0.114l0.778,0.235c0.118,0.035 0.244,0.037 0.363,0.003c0.089,-0.026 0.184,-0.032 0.276,-0.018c1.226,0.197 2.145,-0.035 2.552,-0.175c1.085,1.521 2.468,1.658 2.468,1.658c-0.99,-0.149 -2.277,-1.588 -2.277,-1.588c1.82,1.645 3.921,1.138 3.921,1.138Z" style="fill:#221e1f;fill-rule:nonzero;"/><path d="M178.467,50.367c-1.594,0.128 -2.525,-0.818 -2.525,-0.818c1.233,0.892 2.233,0.263 2.233,0.263c-1.094,0.483 -2.153,-0.288 -2.153,-0.288c1.068,0.593 1.91,0.021 1.91,0.021c-0.899,0.38 -1.691,0.009 -1.833,-0.065c-0,-0 1.151,0.257 2.15,-0.447c-0,0 -1.168,0.608 -2.131,0.346c0.947,-0.109 1.879,-0.864 1.879,-0.864c-0.978,0.581 -1.632,0.725 -1.919,0.76c0.545,-0.92 1.446,-1.17 1.446,-1.17c-0.88,0.059 -1.577,1.159 -1.577,1.159c-0,0 0.045,-0.995 0.934,-1.606c0,-0 -0.936,0.401 -1.011,1.621c-0,0 -0.079,-1.308 0.916,-1.97c0,0 -1.068,0.505 -0.98,2.024c-0,0 -0.296,-1.294 0.67,-2.568c-0,0 -1.034,0.993 -0.765,2.598c0,-0 -0.344,-1.233 -0.074,-1.84c0,0 -0.411,0.818 0.065,1.978c-0.747,0.279 -1.476,0.126 -1.654,0.081l-0.048,-0.052l-0.046,-0.052l-0.704,-0.214c-0.028,-0.008 -0.059,-0.007 -0.086,0.005l-0.071,0.031c-0.062,0.026 -0.092,0.097 -0.068,0.16c0.014,0.037 0.044,0.065 0.081,0.076l0.516,0.156c0.078,0.024 0.162,0.024 0.241,0.002c0.059,-0.017 0.122,-0.021 0.183,-0.012c0.813,0.131 1.423,-0.023 1.693,-0.116c0.72,1.009 1.637,1.099 1.637,1.099c-0.656,-0.099 -1.51,-1.053 -1.51,-1.053c1.207,1.092 2.601,0.755 2.601,0.755Z" style="fill:#221e1f;fill-rule:nonzero;"/><path d="M174.236,33.647c-0.527,1.509 -1.769,1.979 -1.769,1.979c1.314,-0.767 1.143,-1.936 1.143,-1.936c-0,1.195 -1.133,1.852 -1.133,1.852c0.974,-0.737 0.791,-1.739 0.791,-1.739c-0.016,0.976 -0.676,1.551 -0.801,1.651c0,-0 0.701,-0.948 0.461,-2.147c-0,0 0.083,1.314 -0.544,2.089c0.282,-0.911 -0.032,-2.068 -0.032,-2.068c0.136,1.129 0.003,1.785 -0.08,2.062c-0.622,-0.87 -0.487,-1.796 -0.487,-1.796c-0.301,0.829 0.424,1.912 0.424,1.912c-0,0 -0.892,-0.444 -1.092,-1.504c-0,-0 -0.011,1.018 1.074,1.581c0,-0 -1.228,-0.457 -1.431,-1.635c0,0 0.029,1.181 1.455,1.715c-0,-0 -1.304,-0.253 -2.078,-1.651c-0,-0 0.49,1.347 2.067,1.749c-0,0 -1.267,-0.183 -1.713,-0.675c-0,-0 0.582,0.706 1.835,0.74c-0.046,0.796 -0.481,1.4 -0.594,1.545l-0.067,0.023l-0.066,0.021l-0.48,0.557c-0.019,0.023 -0.03,0.052 -0.031,0.081l-0,0.077c-0.001,0.068 0.052,0.124 0.119,0.128c0.039,0.002 0.077,-0.014 0.103,-0.044l0.35,-0.409c0.054,-0.062 0.088,-0.138 0.099,-0.219c0.009,-0.062 0.03,-0.12 0.064,-0.172c0.448,-0.691 0.554,-1.312 0.578,-1.596c1.213,-0.251 1.667,-1.053 1.667,-1.053c-0.356,0.561 -1.574,0.956 -1.574,0.956c1.487,-0.663 1.742,-2.074 1.742,-2.074Z" style="fill:#221e1f;fill-rule:nonzero;"/><path d="M102.028,139.259c-11.362,-0.985 -16.792,-8.742 -16.792,-8.742c7.618,7.735 15.396,4.493 15.396,4.493c-8.26,2.102 -14.804,-4.573 -14.804,-4.573c6.814,5.433 13.416,2.406 13.416,2.406c-6.772,1.608 -11.908,-1.939 -12.822,-2.627c0.002,0.001 7.792,3.174 15.651,-0.597c0,-0 -8.931,2.892 -15.395,-0.084c6.792,0.347 14.239,-3.858 14.239,-3.858c-7.565,2.928 -12.335,3.167 -14.395,3.076c4.916,-5.827 11.554,-6.524 11.554,-6.524c-6.259,-0.626 -12.468,6.29 -12.468,6.29c0,-0 1.502,-6.946 8.475,-10.192c-0,0 -7.058,1.719 -9.033,10.207c-0,0 0.993,-9.294 8.777,-12.769c0,0 -8.112,2.281 -9.291,13.073c-0,0 -0.551,-9.452 7.751,-17.271c0,0 -8.448,5.761 -8.45,17.37c-0,-0 -0.962,-9.082 1.653,-13.028c-0,-0 -3.857,5.264 -1.885,13.986c-5.585,1.083 -10.528,-0.861 -11.724,-1.388c-0.168,-0.074 -0.277,-0.239 -0.28,-0.422c-0.002,-0.177 -0.103,-0.336 -0.261,-0.415l-4.696,-2.337c-0.19,-0.095 -0.408,-0.119 -0.614,-0.069l-0.534,0.13c-0.468,0.114 -0.763,0.577 -0.67,1.049c0.054,0.274 0.233,0.508 0.483,0.632l3.442,1.704c0.524,0.259 1.111,0.362 1.692,0.298c0.439,-0.05 0.884,-0.004 1.302,0.138c5.565,1.879 10.039,1.516 12.047,1.184c3.87,7.944 10.211,9.67 10.211,9.67c-4.499,-1.474 -9.376,-9.196 -9.376,-9.196c7.201,9.106 17.401,8.386 17.401,8.386Z" style="fill:#221e1f;fill-rule:nonzero;"/><path d="M79.126,152.968c-5.596,-4.864 -5.483,-11.017 -5.483,-11.017c1.046,6.979 6.374,8.25 6.374,8.25c-5.146,-2.055 -6.032,-8.066 -6.032,-8.066c1.503,5.462 6.131,6.395 6.131,6.395c-4.175,-1.744 -5.517,-5.573 -5.735,-6.284c0.001,0.001 2.882,4.649 8.456,5.672c-0,0 -5.801,-1.896 -8.06,-5.932c3.437,2.781 8.959,3.418 8.959,3.418c-5.096,-1.354 -7.695,-3.053 -8.743,-3.889c4.813,-1.182 8.568,0.99 8.568,0.99c-3.05,-2.723 -8.958,-1.463 -8.958,-1.463c-0,0 3.446,-3.076 8.352,-2.115c-0,-0 -4.367,-1.796 -8.652,1.91c0,-0 4.077,-4.505 9.498,-3.355c-0,0 -5.137,-1.903 -9.884,3.318c-0,0 3.325,-5.179 10.68,-6.113c-0,-0 -6.644,-0.204 -11.085,5.898c-0,-0 2.967,-5.142 5.851,-6.216c0,-0 -4.04,1.292 -6.34,6.631c-3.349,-1.567 -5.204,-4.479 -5.631,-5.214c-0.061,-0.103 -0.054,-0.231 0.014,-0.329c0.066,-0.094 0.074,-0.216 0.022,-0.318l-1.575,-3.025c-0.064,-0.122 -0.169,-0.218 -0.297,-0.271l-0.33,-0.135c-0.29,-0.12 -0.622,0.011 -0.753,0.295c-0.077,0.165 -0.072,0.356 0.012,0.517l1.157,2.212c0.177,0.336 0.446,0.615 0.776,0.803c0.249,0.142 0.466,0.337 0.632,0.571c2.206,3.116 4.696,4.637 5.879,5.23c-1.005,5.656 1.669,8.988 1.669,8.988c-1.801,-2.495 -1.411,-8.419 -1.411,-8.419c0.302,7.54 5.939,11.063 5.939,11.063Z" style="fill:#221e1f;fill-rule:nonzero;"/><path d="M89.186,121.725c-5.605,2.009 -9.872,-0.488 -9.872,-0.488c5.3,2.009 8.284,-1.223 8.284,-1.223c-3.461,2.797 -8.021,1.056 -8.021,1.056c4.417,1.093 6.89,-1.782 6.89,-1.782c-2.863,2.239 -6.072,1.675 -6.656,1.548c0.001,-0 4.388,-0.192 7.295,-3.694c0,-0 -3.607,3.319 -7.322,3.315c3.298,-1.315 5.915,-4.933 5.915,-4.933c-2.951,3.038 -5.162,4.191 -6.16,4.596c1.063,-3.836 4.06,-5.613 4.06,-5.613c-3.105,1.067 -4.544,5.701 -4.544,5.701c-0,0 -0.801,-3.622 1.799,-6.682c0,0 -2.973,2.354 -2.061,6.811c0,0 -1.554,-4.626 1.382,-7.971c-0,0 -3.352,2.85 -1.559,8.228c-0,-0 -2.322,-4.365 -0.087,-9.884c0,0 -2.753,4.575 -0.223,10.083c-0,-0 -2.436,-4.099 -2.056,-6.542c0,0 -0.682,3.339 2.154,7.047c-2.413,1.73 -5.182,1.886 -5.864,1.897c-0.096,0.001 -0.183,-0.054 -0.225,-0.14c-0.04,-0.083 -0.122,-0.137 -0.214,-0.14l-2.738,-0.085c-0.111,-0.004 -0.219,0.032 -0.306,0.101l-0.225,0.178c-0.197,0.156 -0.237,0.44 -0.089,0.644c0.086,0.118 0.221,0.19 0.367,0.194l2.004,0.059c0.305,0.008 0.606,-0.071 0.868,-0.228c0.197,-0.119 0.418,-0.194 0.648,-0.218c3.049,-0.321 5.093,-1.469 5.973,-2.064c3.568,2.926 6.952,2.362 6.952,2.362c-2.456,0.281 -6.452,-2.319 -6.452,-2.319c5.4,2.751 10.083,0.186 10.083,0.186Z" style="fill:#221e1f;fill-rule:nonzero;"/><path d="M79.157,98.77c-3.193,5.025 -8.094,5.671 -8.094,5.671c5.418,-1.665 5.791,-6.048 5.791,-6.048c-1.017,4.332 -5.685,5.755 -5.685,5.755c4.158,-1.847 4.346,-5.635 4.346,-5.635c-0.886,3.525 -3.767,5.049 -4.306,5.306c0.001,-0 3.348,-2.844 3.494,-7.393c0,-0 -0.811,4.834 -3.747,7.111c1.797,-3.063 1.643,-7.525 1.643,-7.525c-0.466,4.209 -1.504,6.476 -2.043,7.409c-1.515,-3.681 -0.238,-6.924 -0.238,-6.924c-1.798,2.749 -0.091,7.29 -0.091,7.29c0,0 -2.855,-2.368 -2.679,-6.38c0,0 -0.904,3.683 2.552,6.643c-0,0 -4.066,-2.7 -3.8,-7.142c0,0 -0.897,4.307 3.817,7.453c-0,0 -4.511,-2.022 -6.132,-7.751c-0,-0 0.633,5.301 6.009,8.098c-0,0 -4.438,-1.742 -5.636,-3.904c0,0 1.509,3.055 6.024,4.243c-0.844,2.847 -2.935,4.669 -3.467,5.096c-0.075,0.06 -0.178,0.07 -0.263,0.028c-0.083,-0.042 -0.181,-0.034 -0.255,0.02l-2.214,1.613c-0.09,0.065 -0.154,0.16 -0.18,0.268l-0.069,0.279c-0.059,0.244 0.084,0.492 0.325,0.562c0.14,0.041 0.291,0.015 0.409,-0.071l1.619,-1.184c0.246,-0.18 0.435,-0.427 0.545,-0.712c0.083,-0.215 0.212,-0.41 0.378,-0.57c2.211,-2.124 3.121,-4.284 3.45,-5.294c4.613,0.121 6.939,-2.401 6.939,-2.401c-1.766,1.729 -6.518,2.128 -6.518,2.128c5.953,-1.141 8.076,-6.039 8.076,-6.039Z" style="fill:#221e1f;fill-rule:nonzero;"/><path d="M51.608,90.871c1.738,5.695 -0.96,9.837 -0.96,9.837c2.261,-5.197 -0.825,-8.332 -0.825,-8.332c2.628,3.591 0.671,8.061 0.671,8.061c1.303,-4.359 -1.45,-6.966 -1.45,-6.966c2.099,2.966 1.382,6.145 1.227,6.722c0,-0.001 0.018,-4.393 -3.34,-7.464c-0,0 3.142,3.762 2.961,7.473c-1.156,-3.358 -4.645,-6.144 -4.645,-6.144c2.893,3.093 3.939,5.356 4.297,6.372c-3.781,-1.245 -5.413,-4.324 -5.413,-4.324c0.917,3.153 5.477,4.812 5.477,4.812c0,-0 -3.656,0.627 -6.588,-2.117c-0,0 2.208,3.082 6.705,2.385c-0,-0 -4.696,1.331 -7.896,-1.762c0,0 2.686,3.484 8.143,1.951c-0,-0 -4.47,2.11 -9.876,-0.387c0,0 4.437,2.969 10.06,0.706c-0,0 -4.211,2.237 -6.632,1.74c-0,0 3.302,0.841 7.141,-1.814c1.614,2.493 1.636,5.266 1.614,5.948c-0.003,0.096 -0.062,0.181 -0.15,0.218c-0.085,0.036 -0.143,0.116 -0.15,0.208l-0.216,2.73c-0.009,0.111 0.022,0.221 0.086,0.311l0.167,0.233c0.147,0.205 0.429,0.257 0.639,0.12c0.122,-0.08 0.2,-0.212 0.212,-0.357l0.154,-2c0.024,-0.304 -0.041,-0.608 -0.186,-0.877c-0.109,-0.203 -0.174,-0.427 -0.187,-0.658c-0.174,-3.061 -1.223,-5.157 -1.775,-6.065c3.093,-3.423 2.692,-6.831 2.692,-6.831c0.163,2.466 -2.625,6.334 -2.625,6.334c3.006,-5.263 0.668,-10.063 0.668,-10.063Z" style="fill:#221e1f;fill-rule:nonzero;"/><path d="M29.767,106.858c5.178,2.94 6.067,7.803 6.067,7.803c-1.932,-5.329 -6.329,-5.483 -6.329,-5.483c4.378,0.8 6.03,5.392 6.03,5.392c-2.051,-4.061 -5.843,-4.061 -5.843,-4.061c3.564,0.71 5.229,3.511 5.514,4.036c-0.001,0 -3.008,-3.202 -7.558,-3.122c-0,-0 4.868,0.571 7.288,3.39c-3.148,-1.643 -7.597,-1.268 -7.597,-1.268c4.227,0.257 6.543,1.181 7.501,1.673c-3.601,1.695 -6.903,0.582 -6.903,0.582c2.834,1.659 7.285,-0.272 7.285,-0.272c0,-0 -2.224,2.969 -6.239,2.993c-0,-0 3.723,0.719 6.508,-2.879c-0,0 -2.494,4.195 -6.945,4.15c0,-0 4.347,0.683 7.255,-4.182c0,-0 -1.796,4.605 -7.437,6.509c-0,0 5.263,-0.895 7.79,-6.404c-0,0 -1.52,4.52 -3.62,5.823c0,0 2.976,-1.659 3.939,-6.227c2.885,0.701 4.808,2.699 5.261,3.209c0.064,0.072 0.08,0.174 0.041,0.262c-0.037,0.084 -0.024,0.182 0.034,0.254l1.72,2.131c0.07,0.086 0.168,0.146 0.277,0.167l0.281,0.054c0.247,0.047 0.488,-0.108 0.547,-0.352c0.034,-0.142 -0.001,-0.292 -0.093,-0.406l-1.262,-1.557c-0.192,-0.237 -0.448,-0.414 -0.738,-0.509c-0.219,-0.073 -0.42,-0.191 -0.588,-0.349c-2.232,-2.103 -4.434,-2.905 -5.459,-3.184c-0.108,-4.613 -2.742,-6.811 -2.742,-6.811c1.814,1.678 2.448,6.404 2.448,6.404c-1.435,-5.888 -6.433,-7.766 -6.433,-7.766Z" style="fill:#221e1f;fill-rule:nonzero;"/><path d="M27.907,134.629c5.447,-2.406 9.881,-0.222 9.881,-0.222c-5.43,-1.624 -8.174,1.815 -8.174,1.815c3.251,-3.039 7.924,-1.629 7.924,-1.629c-4.484,-0.774 -6.744,2.272 -6.744,2.272c2.694,-2.439 5.936,-2.107 6.527,-2.022c-0,0 -4.363,0.507 -7.011,4.208c-0,-0 3.359,-3.569 7.065,-3.832c-3.195,1.549 -5.545,5.345 -5.545,5.345c2.725,-3.242 4.848,-4.55 5.814,-5.026c-0.785,3.902 -3.647,5.89 -3.647,5.89c3.021,-1.288 4.124,-6.013 4.124,-6.013c-0,0 1.058,3.556 -1.316,6.794c0,-0 2.797,-2.561 1.567,-6.942c0,0 1.882,4.503 -0.806,8.05c-0,-0 3.138,-3.083 0.965,-8.318c-0,-0 2.628,4.187 0.795,9.852c-0,-0 2.418,-4.76 -0.5,-10.072c-0,-0 2.723,3.913 2.519,6.376c-0,0 0.441,-3.378 -2.654,-6.873c2.283,-1.9 5.034,-2.253 5.713,-2.313c0.096,-0.008 0.187,0.04 0.235,0.123c0.045,0.08 0.132,0.128 0.223,0.124l2.737,-0.111c0.111,-0.004 0.217,-0.048 0.299,-0.123l0.211,-0.194c0.186,-0.17 0.204,-0.455 0.043,-0.648c-0.094,-0.112 -0.235,-0.174 -0.38,-0.168l-2.004,0.086c-0.305,0.013 -0.599,0.114 -0.848,0.289c-0.189,0.133 -0.404,0.224 -0.631,0.265c-3.019,0.538 -4.975,1.83 -5.81,2.486c-3.768,-2.662 -7.104,-1.857 -7.104,-1.857c2.429,-0.457 6.602,1.85 6.602,1.85c-5.583,-2.356 -10.07,0.538 -10.07,0.538Z" style="fill:#221e1f;fill-rule:nonzero;"/><path d="M47.048,152.144c2.427,-5.437 7.181,-6.79 7.181,-6.79c-5.117,2.436 -4.847,6.828 -4.847,6.828c0.375,-4.435 4.786,-6.523 4.786,-6.523c-3.845,2.434 -3.479,6.208 -3.479,6.208c0.363,-3.616 2.991,-5.543 3.486,-5.877c-0,0.001 -2.897,3.302 -2.379,7.824c-0,-0 0.099,-4.901 2.672,-7.581c-1.332,3.291 -0.53,7.683 -0.53,7.683c-0.152,-4.231 0.545,-6.626 0.942,-7.627c2.035,3.422 1.244,6.815 1.244,6.815c1.378,-2.98 -0.972,-7.225 -0.972,-7.225c-0,-0 3.17,1.928 3.579,5.922c0,-0 0.359,-3.776 -3.492,-6.2c0,-0 4.416,2.078 4.8,6.511c-0,0 0.261,-4.391 -4.862,-6.817c0,0 4.758,1.344 7.196,6.775c0,0 -1.398,-5.152 -7.125,-7.136c0,-0 4.645,1.077 6.145,3.041c0,0 -1.938,-2.802 -6.578,-3.32c0.42,-2.94 2.223,-5.046 2.688,-5.546c0.065,-0.071 0.165,-0.096 0.256,-0.066c0.087,0.029 0.184,0.006 0.249,-0.058l1.956,-1.918c0.079,-0.077 0.128,-0.18 0.139,-0.291l0.027,-0.286c0.023,-0.25 -0.154,-0.475 -0.403,-0.509c-0.145,-0.02 -0.291,0.028 -0.394,0.13l-1.43,1.407c-0.217,0.214 -0.368,0.486 -0.435,0.784c-0.051,0.225 -0.15,0.437 -0.291,0.619c-1.878,2.424 -2.463,4.693 -2.642,5.741c-4.581,0.551 -6.516,3.385 -6.516,3.385c1.496,-1.968 6.139,-3.054 6.139,-3.054c-5.723,1.996 -7.11,7.151 -7.11,7.151Z" style="fill:#221e1f;fill-rule:nonzero;"/><path d="M34.669,166.03c8.238,-7.887 7.609,-17.334 7.609,-17.334c-1.09,10.801 -9.183,13.148 -9.183,13.148c7.755,-3.538 8.672,-12.84 8.672,-12.84c-1.906,8.504 -8.948,10.281 -8.948,10.281c6.286,-2.99 8.065,-8.972 8.347,-10.081c-0.001,0.001 -4.084,7.356 -12.572,9.341c-0,0 8.773,-3.342 11.945,-9.711c-5.076,4.526 -13.514,5.915 -13.514,5.915c7.73,-2.458 11.598,-5.26 13.146,-6.623c-7.483,-1.46 -13.092,2.155 -13.092,2.155c4.486,-4.409 13.657,-2.91 13.657,-2.91c0,0 -5.522,-4.472 -12.99,-2.633c-0,0 6.577,-3.082 13.435,2.295c0,0 -6.598,-6.621 -14.841,-4.451c-0,0 7.751,-3.306 15.432,4.366c0,0 -5.493,-7.711 -16.862,-8.602c-0,-0 10.194,-0.805 17.469,8.241c-0,0 -4.941,-7.681 -9.452,-9.118c0,0 6.305,1.687 10.233,9.719c5.031,-2.655 7.665,-7.267 8.268,-8.427c0.084,-0.163 0.065,-0.36 -0.048,-0.505c-0.108,-0.139 -0.13,-0.326 -0.056,-0.486l2.196,-4.765c0.089,-0.193 0.243,-0.348 0.435,-0.439l0.498,-0.233c0.437,-0.204 0.956,-0.028 1.179,0.399c0.13,0.248 0.137,0.541 0.02,0.795l-1.615,3.485c-0.246,0.53 -0.639,0.978 -1.132,1.291c-0.373,0.237 -0.691,0.552 -0.929,0.924c-3.159,4.952 -6.873,7.472 -8.646,8.472c1.962,8.616 -1.899,13.934 -1.899,13.934c2.583,-3.968 1.545,-13.041 1.545,-13.041c0.094,11.608 -8.307,17.438 -8.307,17.438Z" style="fill:#221e1f;fill-rule:nonzero;"/><path d="M12.716,133.402c11.403,0.214 17.617,-6.929 17.617,-6.929c-8.388,6.892 -15.782,2.851 -15.782,2.851c7.994,2.958 15.202,-2.992 15.202,-2.992c-7.347,4.687 -13.594,0.982 -13.594,0.982c6.566,2.312 12.045,-0.676 13.027,-1.265c-0.002,0.001 -8.082,2.338 -15.502,-2.238c0,-0 8.578,3.815 15.318,1.534c-6.79,-0.368 -13.754,-5.332 -13.754,-5.332c7.215,3.707 11.934,4.445 13.993,4.571c-4.277,-6.311 -10.805,-7.702 -10.805,-7.702c6.29,0.035 11.738,7.565 11.738,7.565c-0,0 -0.764,-7.064 -7.357,-11.025c0,-0 6.837,2.45 7.911,11.099c-0,0 -0.012,-9.347 -7.388,-13.62c0,-0 7.828,3.12 7.867,13.977c-0,-0 1.54,-9.342 -5.894,-17.99c-0,0 7.796,6.617 6.578,18.161c0,-0 1.912,-8.931 -0.275,-13.13c0,0 3.283,5.641 0.405,14.107c5.44,1.664 10.56,0.25 11.805,-0.148c0.175,-0.056 0.3,-0.209 0.322,-0.391c0.022,-0.175 0.139,-0.323 0.304,-0.385l4.916,-1.831c0.199,-0.074 0.418,-0.075 0.618,-0.003l0.517,0.185c0.453,0.163 0.699,0.654 0.556,1.114c-0.083,0.267 -0.285,0.48 -0.547,0.577l-3.602,1.333c-0.548,0.203 -1.143,0.244 -1.714,0.119c-0.431,-0.096 -0.879,-0.097 -1.309,-0c-5.732,1.284 -10.143,0.453 -12.105,-0.088c-4.683,7.494 -11.171,8.543 -11.171,8.543c4.629,-0.993 10.291,-8.16 10.291,-8.16c-8.117,8.299 -18.186,6.511 -18.186,6.511Z" style="fill:#221e1f;fill-rule:nonzero;"/><path d="M20.396,91.328c6.165,9.594 15.558,10.785 15.558,10.785c-10.393,-3.137 -11.149,-11.53 -11.149,-11.53c1.989,8.289 10.944,10.969 10.944,10.969c-7.982,-3.498 -8.379,-10.75 -8.379,-10.75c1.732,6.742 7.263,9.633 8.298,10.122c-0.001,-0.001 -6.439,-5.416 -6.763,-14.128c-0,0 1.601,9.251 7.246,13.583c-3.471,-5.847 -3.22,-14.395 -3.22,-14.395c0.933,8.057 2.944,12.389 3.985,14.17c2.865,-7.065 0.39,-13.263 0.39,-13.263c3.47,5.247 0.243,13.962 0.243,13.962c-0,-0 5.446,-4.564 5.07,-12.246c-0,-0 1.767,7.045 -4.823,12.748c-0,-0 7.761,-5.21 7.208,-13.716c0,0 1.762,8.241 -7.238,14.312c-0,-0 8.62,-3.916 11.67,-14.905c0,-0 -1.161,10.159 -11.432,15.569c0,0 8.485,-3.38 10.758,-7.532c-0,-0 -2.862,5.866 -11.498,8.184c1.644,5.446 5.666,8.914 6.69,9.727c0.144,0.115 0.341,0.133 0.505,0.051c0.157,-0.08 0.345,-0.065 0.488,0.037l4.256,3.067c0.173,0.124 0.296,0.306 0.347,0.512l0.134,0.533c0.117,0.468 -0.155,0.944 -0.616,1.081c-0.268,0.08 -0.558,0.03 -0.785,-0.133l-3.111,-2.252c-0.474,-0.342 -0.838,-0.814 -1.051,-1.358c-0.161,-0.411 -0.409,-0.784 -0.729,-1.088c-4.256,-4.048 -6.019,-8.177 -6.661,-10.108c-8.832,0.277 -13.313,-4.53 -13.313,-4.53c3.4,3.294 12.505,4.012 12.505,4.012c-11.412,-2.129 -15.527,-11.49 -15.527,-11.49Z" style="fill:#221e1f;fill-rule:nonzero;"/><path d="M71.939,84.395c-2.243,9.594 -9.546,13.281 -9.546,13.281c7.554,-5.561 5.741,-12.612 5.741,-12.612c0.779,7.324 -5.736,12.096 -5.736,12.096c5.487,-5.157 3.711,-11.176 3.711,-11.176c0.541,5.99 -3.126,9.944 -3.827,10.641c0.001,-0.001 3.675,-6.272 1.419,-13.457c0,-0 1.373,7.994 -1.969,13.154c1.134,-5.765 -1.543,-12.651 -1.543,-12.651c1.57,6.829 1.187,10.938 0.855,12.688c-4.377,-4.923 -4.155,-10.684 -4.155,-10.684c-1.306,5.275 3.842,11.436 3.842,11.436c-0,0 -5.754,-2.14 -7.671,-8.503c0,0 0.6,6.247 7.615,8.983c-0,0 -7.825,-1.996 -9.836,-9.08c-0,0 0.95,7.218 10.033,9.557c-0,0 -8.151,-0.694 -13.813,-8.758c-0,0 3.884,7.935 13.811,9.368c-0,-0 -7.885,-0.297 -10.937,-3.02c-0,0 4.026,3.947 11.728,3.337c0.237,4.908 -2.035,8.896 -2.632,9.854c-0.084,0.135 -0.24,0.207 -0.397,0.187c-0.151,-0.019 -0.3,0.047 -0.386,0.172l-2.578,3.728c-0.105,0.151 -0.152,0.334 -0.135,0.517l0.046,0.472c0.04,0.415 0.399,0.724 0.814,0.702c0.242,-0.012 0.463,-0.136 0.6,-0.335l1.882,-2.733c0.286,-0.416 0.447,-0.906 0.463,-1.41c0.012,-0.381 0.106,-0.757 0.278,-1.097c2.294,-4.527 2.535,-8.398 2.498,-10.155c7.272,-2.33 9.528,-7.54 9.528,-7.54c-1.814,3.665 -9.019,6.884 -9.019,6.884c8.675,-5.035 9.316,-13.846 9.316,-13.846Z" style="fill:#221e1f;fill-rule:nonzero;"/><path d="M70.787,120.385c1.443,8.369 -4.172,16.322 -12.541,17.765c-8.368,1.443 -16.322,-4.172 -17.765,-12.541c-1.443,-8.368 4.172,-16.322 12.541,-17.765c8.368,-1.443 16.323,4.172 17.765,12.541Z" style="fill:#221e1f;fill-rule:nonzero;"/><path d="M55.303,251.504c-4.206,-7.351 -31.057,-59.083 3.913,-126.442l-1.775,-0.61c-0,0 -39.91,62.536 -6.259,129.26c0.932,1.848 3.629,1.668 4.302,-0.29c0.218,-0.636 0.153,-1.334 -0.181,-1.918Z" style="fill:#221e1f;fill-rule:nonzero;"/></g></g></svg>